<?xml version="1.0" encoding="iso-8859-1"?>
<!-- Uploaded to: SVG Repo, www.svgrepo.com, Generator: SVG Repo Mixer Tools -->
<svg fill="#000000" height="800px" width="800px" version="1.1" id="Layer_1" xmlns="http://www.w3.org/2000/svg" xmlns:xlink="http://www.w3.org/1999/xlink" 
	 viewBox="0 0 491.52 491.52" xml:space="preserve">
<g>
	<g>
		<g>
			<path d="M456.751,373.738l-28.468-198.188c-2.105-20.798-10.121-39.262-22.389-54.184c-0.063-0.077-0.127-0.152-0.19-0.229
				c-0.762-0.921-1.538-1.831-2.332-2.724c-0.498-0.564-1.008-1.117-1.519-1.67c-0.218-0.235-0.437-0.469-0.657-0.701
				c-14.704-15.629-34.343-26.561-56.689-31.36c-0.025-0.005-0.05-0.011-0.076-0.017c-0.803-0.172-1.608-0.339-2.418-0.495
				c-0.964-0.187-1.934-0.362-2.907-0.526c-0.555-0.093-1.112-0.182-1.67-0.268c-1.197-0.185-2.399-0.354-3.609-0.504
				c-0.329-0.04-0.659-0.078-0.988-0.115c-1.411-0.164-2.829-0.306-4.257-0.422c-0.118-0.009-0.236-0.017-0.354-0.026
				c-3.246-0.254-6.532-0.389-9.856-0.389h-11.704V61.44c0-33.941-27.499-61.44-61.44-61.44c-33.941,0-61.44,27.499-61.44,61.44
				v20.48h-8.469c-8.004,0-15.798,0.753-23.303,2.193c-0.039,0.007-0.078,0.014-0.117,0.022c-0.674,0.13-1.343,0.269-2.012,0.41
				c-0.18,0.038-0.361,0.073-0.54,0.111c-0.549,0.118-1.094,0.245-1.64,0.371c-0.297,0.068-0.595,0.133-0.89,0.204
				c-0.441,0.105-0.878,0.218-1.317,0.328c-0.397,0.1-0.796,0.197-1.191,0.3c-0.348,0.091-0.693,0.188-1.04,0.283
				c-0.482,0.131-0.964,0.261-1.443,0.397c-0.268,0.077-0.534,0.158-0.801,0.236c-0.555,0.163-1.109,0.326-1.66,0.497
				c-0.194,0.06-0.386,0.124-0.58,0.185c-0.619,0.195-1.238,0.393-1.852,0.599c-0.133,0.044-0.264,0.091-0.397,0.136
				c-0.673,0.228-1.345,0.46-2.012,0.699c-0.076,0.027-0.151,0.056-0.227,0.083c-0.719,0.26-1.435,0.526-2.147,0.8
				c-0.035,0.013-0.069,0.027-0.104,0.041c-8.537,3.294-16.512,7.563-23.775,12.697c-0.012,0.009-0.024,0.018-0.037,0.026
				c-0.639,0.452-1.272,0.911-1.9,1.376c-0.047,0.035-0.093,0.07-0.139,0.104c-0.591,0.439-1.176,0.884-1.757,1.335
				c-0.084,0.065-0.167,0.131-0.25,0.196c-0.538,0.421-1.072,0.845-1.601,1.276c-0.127,0.103-0.253,0.208-0.379,0.312
				c-0.479,0.394-0.956,0.79-1.427,1.192c-0.174,0.148-0.347,0.299-0.52,0.448c-0.417,0.36-0.833,0.722-1.244,1.089
				c-0.224,0.199-0.445,0.401-0.667,0.602c-0.352,0.32-0.703,0.64-1.051,0.965c-0.276,0.257-0.549,0.517-0.822,0.777
				c-0.286,0.272-0.571,0.545-0.853,0.82c-0.33,0.322-0.657,0.647-0.983,0.973c-0.216,0.216-0.431,0.432-0.645,0.65
				c-0.388,0.395-0.772,0.795-1.153,1.197c-0.143,0.151-0.287,0.301-0.429,0.453c-0.446,0.475-0.886,0.954-1.322,1.438
				c-0.073,0.081-0.146,0.161-0.218,0.241c-0.502,0.56-0.998,1.125-1.488,1.696c-0.002,0.003-0.004,0.005-0.007,0.008
				c-13.331,15.536-22.026,35.138-24.149,57.431l-30.285,195.5c-9.684,62.5,38.663,118.905,101.913,118.905h217.805
				C417.448,491.52,465.669,435.888,456.751,373.738z M327.146,184.32c-11.311,0-20.48,9.169-20.48,20.48v48.331
				c-18.883,8.461-39.719,13.115-61.45,13.115c-21.711,0-42.537-4.667-61.43-13.134V204.8c0-11.311-9.169-20.48-20.48-20.48
				s-20.48,9.169-20.48,20.48v21.169c-15.132-14.063-27.473-31.283-35.916-50.868c4.825-24.08,21.855-41.851,45.182-48.894
				c0.067-0.02,0.133-0.04,0.2-0.06c0.868-0.259,1.747-0.499,2.631-0.728c0.22-0.057,0.44-0.115,0.661-0.17
				c0.734-0.183,1.477-0.351,2.222-0.513c0.35-0.076,0.699-0.155,1.052-0.226c0.62-0.126,1.247-0.238,1.873-0.35
				c0.468-0.083,0.933-0.17,1.405-0.245c0.512-0.082,1.031-0.15,1.548-0.222c0.58-0.081,1.158-0.165,1.744-0.234
				c0.393-0.046,0.791-0.08,1.186-0.12c0.709-0.073,1.416-0.148,2.133-0.203c0.199-0.015,0.401-0.022,0.6-0.036
				c1.964-0.136,3.952-0.214,5.97-0.214H318.37c0.855,0,1.701,0.02,2.546,0.044c0.201,0.006,0.404,0.005,0.604,0.012
				c0.587,0.021,1.166,0.06,1.747,0.092c0.535,0.03,1.072,0.056,1.603,0.096c0.424,0.031,0.844,0.074,1.265,0.112
				c0.721,0.066,1.44,0.133,2.153,0.217c0.255,0.029,0.508,0.063,0.762,0.095c0.938,0.119,1.872,0.247,2.796,0.398
				c0.037,0.006,0.073,0.012,0.11,0.018c25.915,4.253,45.848,20.663,53.078,43.817c0.177,0.577,0.348,1.158,0.509,1.744
				c0.037,0.131,0.073,0.262,0.109,0.394c-8.406,21.708-21.545,40.762-38.026,56.071V204.8
				C347.626,193.489,338.457,184.32,327.146,184.32z M224.746,61.44c0-11.32,9.16-20.48,20.48-20.48c11.32,0,20.48,9.16,20.48,20.48
				v20.48h-40.96V61.44z M354.661,450.56H136.856c-38.131,0-67.274-34-61.436-71.677l21.909-141.596
				c12.974,15.776,28.348,29.347,45.497,40.22v50.173c0,11.311,9.169,20.48,20.48,20.48s20.48-9.169,20.48-20.48v-30.586
				c19.392,6.577,40.078,10.112,61.43,10.112c21.373,0,42.062-3.543,61.45-10.119v30.593c0,11.311,9.169,20.48,20.48,20.48
				s20.48-9.169,20.48-20.48v-50.176c18.168-11.518,34.332-26.059,47.755-43.018l20.825,145.073
				C421.582,417.022,392.512,450.56,354.661,450.56z"/>
			<path d="M265.706,368.64h-40.96c-11.311,0-20.48,9.169-20.48,20.48c0,11.311,9.169,20.48,20.48,20.48h40.96
				c11.311,0,20.48-9.169,20.48-20.48C286.186,377.809,277.017,368.64,265.706,368.64z"/>
		</g>
	</g>
</g>
</svg>