<?xml version="1.0" encoding="utf-8"?>
<!-- Uploaded to: SVG Repo, www.svgrepo.com, Generator: SVG Repo Mixer Tools -->
<svg fill="#000000" width="800px" height="800px" viewBox="0 0 32 32" version="1.1" xmlns="http://www.w3.org/2000/svg">
<title>dripping-sword</title>
<path d="M22.857 19.876c0.315-3.515 2.272-2.204 2.158 3.249l1.114 3.638c0.352-3.099 2.826-3.715 3.105 0.11l0.344-19.405-7.21 7.323 0.489 5.084zM19.274 24.685c0.43-4.165 2.302-4.699 2.422-2.783l0.464-7.215-5.668 6.325c1.062-0.982 2.162-0.071 2.782 3.673zM25.311 2.464l-16.45 16.451c-1.192-1.624-2.13-3.37-2.681-5.112-4.651 3.706-1.235 6.776 1.496 8.353-1.661 2.254-3.602 3.994-5.61 5.61 0 1.608 0.974 2.4 2.4 2.4 1.572-2.118 3.34-4.074 5.61-5.61 1.336 2.313 4.093 6.068 8.509 1.652-1.861-0.588-3.619-1.594-5.267-2.836l16.45-16.451 0.5-4.914-4.957 0.458z"></path>
</svg>