<?xml version="1.0" encoding="utf-8"?>
<!-- Uploaded to: SVG Repo, www.svgrepo.com, Generator: SVG Repo Mixer Tools -->
<svg fill="#000000" width="800px" height="800px" viewBox="0 0 32 32" version="1.1" xmlns="http://www.w3.org/2000/svg">
<title>battered-axe</title>
<path d="M29.574 2.608c-3.002 6.689-7.804 6.471-12.624 4.056l1.179-1.69c-0.774-1.171-2.183-2.020-3.485-2.401l-1.313 1.923c-1.098-0.75-2.172-1.555-3.201-2.356l-0 0c-0.124 0.189-0.239 0.371-0.346 0.548-2.12-1.198-4.921-1.731-8.070-1.731 3.119 1.26 5.566 2.932 6.661 5.777-0.063 0.865-0.010 1.739-0.010 2.807 0.371 0.205 0.731 0.421 1.080 0.645l-8.161 11.95 0.050 6.904 11.299-16.19c3.362 3.722 3.784 8.533-2.155 12.281 3.241 0.943 6.263 0.992 8.965 0.364l0.547-3.462 2.313 2.41c1.916-1.098 4.74-3.122 5.994-4.926l-2.003-3.461 3.425 0.947c2.102-3.231 2.327-10.235-0.146-14.394z"></path>
</svg>