<?xml version="1.0" encoding="utf-8"?>
<!-- Uploaded to: SVG Repo, www.svgrepo.com, Generator: SVG Repo Mixer Tools -->
<svg fill="#000000" width="800px" height="800px" viewBox="0 0 32 32" version="1.1" xmlns="http://www.w3.org/2000/svg">
<title>crossed-swords</title>
<path d="M24.061 21.904l4.299-4.299-1.78-1.779c-0.694 1.364-1.523 2.621-2.463 3.78-1.439-1.437-2.855-2.843-4.271-4.213 4.169-4.433 7.942-9.042 10.831-14.491-5.538 3.087-10.224 6.757-14.722 10.836-4.498-4.079-9.184-7.749-14.722-10.836 2.889 5.449 6.662 10.059 10.831 14.491-1.416 1.37-2.833 2.776-4.271 4.213-0.94-1.159-1.769-2.416-2.463-3.78l-1.78 1.78 4.299 4.299c-1.64 2.725-3.963 4.769-6.613 6.484l1.751 1.751c1.735-2.631 3.853-4.879 6.494-6.603l4.289 4.289 1.78-1.78c-1.308-0.756-2.563-1.592-3.739-2.516 1.396-1.393 2.782-2.764 4.144-4.133 1.362 1.368 2.748 2.739 4.144 4.133-1.177 0.924-2.431 1.761-3.739 2.516l1.78 1.78 4.289-4.289c2.641 1.724 4.759 3.972 6.494 6.603l1.751-1.751c-2.65-1.716-4.973-3.759-6.613-6.484z"></path>
</svg>